<svg width="200px" height="40px" viewBox="0 0 200 36" fill="none" xmlns="http://www.w3.org/2000/svg" style="height: 40px; width: 200px; cursor: pointer;"><path fill-rule="evenodd" clip-rule="evenodd" d="M.98 14.39a7.223 7.223 0 0 0-.02 7.232L7.207 32.47a7 7 0 0 0 6.06 3.53h13.375a6.96 6.96 0 0 0 4.66-1.797l-4.18-4.216a13.447 13.447 0 0 1-7.288 2.148c-7.534 0-13.627-6.148-13.627-13.75 0-7.603 6.093-13.751 13.627-13.751 7.533 0 13.626 6.148 13.626 13.75 0 3.138-1.058 6.004-2.805 8.317l3.41 3.432 4.955-8.494a7.223 7.223 0 0 0-.005-7.275L32.651 3.487A7 7 0 0 0 26.614 0h-13.24a7 7 0 0 0-6.04 3.496L.98 14.39Zm18.854-6.52c5.77 0 10.42 4.691 10.42 10.514 0 5.824-4.65 10.516-10.42 10.516-5.771 0-10.42-4.692-10.42-10.515 0-5.824 4.649-10.516 10.42-10.516Zm6.137 11.158c.44 0 .823-.293.978-.746.155-.454.04-.953-.276-1.257l-5.477-5.702a1.627 1.627 0 0 0-2.392 0l-5.463 5.689a1.217 1.217 0 0 0-.29 1.27c.155.454.538.746.977.746h.358v5.658c0 .284.21.514.468.514h2.807v-3.6c0-1.418 1.05-2.572 2.34-2.572 1.289 0 2.338 1.154 2.338 2.572v3.6h2.807c.258 0 .468-.23.468-.514v-5.658h.357Z" fill="#fff"></path><path d="M64 8v20h-4.5v-8.234h-7V28H48V8h4.5v7.835h7V8H64ZM82 20.265c0 .418-.029.854-.086 1.306H70.857c.076.906.39 1.603.943 2.091.571.47 1.267.706 2.086.706 1.219 0 2.066-.47 2.543-1.412h5.2a6.266 6.266 0 0 1-1.458 2.588c-.685.766-1.552 1.367-2.6 1.803-1.047.435-2.219.653-3.514.653-1.562 0-2.952-.305-4.171-.915-1.22-.61-2.172-1.48-2.857-2.613C66.343 23.34 66 22.016 66 20.5s.333-2.84 1-3.972c.686-1.132 1.638-2.004 2.857-2.613 1.22-.61 2.62-.915 4.2-.915 1.543 0 2.914.296 4.114.889 1.2.592 2.134 1.437 2.8 2.534.686 1.098 1.029 2.378 1.029 3.842Zm-5-1.176c0-.767-.286-1.377-.857-1.83-.572-.452-1.286-.679-2.143-.679-.819 0-1.514.218-2.086.654-.552.435-.895 1.053-1.028 1.855H77ZM94.694 28l-2.957-4.167L89.25 28h-5.112l5.085-7.661L84 13h5.306l2.957 4.14L94.75 13h5.112l-5.168 7.554L100 28h-5.306ZM102 20.474c0-1.498.29-2.814.869-3.946.598-1.132 1.404-2.004 2.418-2.613 1.014-.61 2.146-.915 3.396-.915 1.068 0 2.001.21 2.797.627.815.418 1.44.967 1.875 1.646V13.21H118v14.582h-4.645v-2.064c-.453.679-1.087 1.228-1.902 1.646-.797.418-1.729.627-2.798.627-1.231 0-2.354-.305-3.368-.915-1.014-.627-1.82-1.507-2.418-2.639-.579-1.15-.869-2.474-.869-3.972Zm11.355.026c0-1.115-.326-1.995-.978-2.64-.634-.644-1.413-.966-2.336-.966a3.24 3.24 0 0 0-2.364.967c-.633.627-.95 1.498-.95 2.613s.317 2.003.95 2.665a3.24 3.24 0 0 0 2.364.967c.923 0 1.702-.322 2.336-.967.652-.644.978-1.524.978-2.639ZM136 8v20h-4.5v-8.234h-7V28H120V8h4.5v7.835h7V8h4.5ZM145.945 28c-1.508 0-2.869-.305-4.083-.915a7.03 7.03 0 0 1-2.841-2.613C138.34 23.34 138 22.016 138 20.5c0-1.498.349-2.814 1.048-3.946a6.93 6.93 0 0 1 2.869-2.64c1.214-.61 2.575-.914 4.083-.914s2.869.305 4.083.915a6.93 6.93 0 0 1 2.869 2.639c.699 1.132 1.048 2.448 1.048 3.946 0 1.498-.359 2.822-1.076 3.972-.699 1.133-1.664 2.004-2.896 2.613-1.214.61-2.575.915-4.083.915Zm0-3.868c.901 0 1.664-.313 2.289-.94.644-.628.966-1.525.966-2.692 0-1.167-.313-2.064-.938-2.692-.607-.627-1.361-.94-2.262-.94-.92 0-1.683.313-2.29.94-.607.61-.91 1.507-.91 2.692 0 1.167.294 2.064.883 2.692.607.627 1.361.94 2.262.94ZM174.956 13c1.846 0 3.311.559 4.393 1.675C180.45 15.793 181 17.345 181 19.33V28h-4.526v-8.058c0-.958-.257-1.694-.772-2.208-.497-.532-1.189-.798-2.077-.798-.887 0-1.588.266-2.103.798-.497.514-.746 1.25-.746 2.207V28h-4.526v-8.058c0-.958-.257-1.694-.772-2.208-.497-.532-1.189-.798-2.077-.798-.887 0-1.588.266-2.103.798-.497.514-.745 1.25-.745 2.207V28H156V13.16h4.553v1.861a4.755 4.755 0 0 1 1.81-1.463c.746-.372 1.589-.558 2.529-.558 1.119 0 2.113.24 2.982.718a5.125 5.125 0 0 1 2.077 2.048c.515-.816 1.216-1.48 2.103-1.995a5.69 5.69 0 0 1 2.902-.771ZM199 20.265c0 .418-.029.854-.086 1.306h-11.057c.076.906.391 1.603.943 2.091.571.47 1.267.706 2.086.706 1.219 0 2.066-.47 2.543-1.412h5.2a6.269 6.269 0 0 1-1.458 2.588c-.685.766-1.552 1.367-2.6 1.803-1.047.435-2.219.653-3.514.653-1.562 0-2.952-.305-4.171-.915-1.219-.61-2.172-1.48-2.857-2.613C183.343 23.34 183 22.016 183 20.5s.333-2.84 1-3.972c.686-1.132 1.638-2.004 2.857-2.613 1.219-.61 2.619-.915 4.2-.915 1.543 0 2.914.296 4.114.889 1.2.592 2.134 1.437 2.8 2.534.686 1.098 1.029 2.378 1.029 3.842Zm-5-1.176c0-.767-.286-1.377-.857-1.83-.572-.452-1.286-.679-2.143-.679-.819 0-1.514.218-2.086.654-.552.435-.895 1.053-1.028 1.855H194Z" fill="#fff"></path></svg>